<svg xmlns="http://www.w3.org/2000/svg" width="246" height="40" viewBox="0 0 246 40" fill="none"><path d="M21.48 13.36V22.32C21.48 28.12 27.68 33.28 35.64 33.28C40.64 33.28 44.56 32.2 45.24 30.16C45.6 29.04 45.12 27.84 43.96 27.36C42.48 26.72 40.88 27.16 40.36 29.04C39.92 30.64 38.72 31.64 35.88 31.64C31.24 31.64 27.56 28.8 27.56 23.48V13.04C27.56 10.48 26.04 8.2 22.52 8.2C20.08 8.2 18.28 10 17.64 11.84C17.2 9.84 15.68 8.2 12.72 8.2C10.4 8.2 8.68 9.8 7.96 11.56V8.88C7.96 8.64 7.92 8.2 7.52 8.2C7.04 8.2 6.2 8.56 4.52 9.2C2.92 9.84 1.76 10.28 1.08 10.52C0.68 10.68 0.44 10.84 0.44 11.12C0.44 11.44 0.68 11.64 1.08 11.92C1.8 12.44 1.88 12.96 1.88 13.52V23.12C1.88 24.52 1.6 24.96 1.04 25.12C0.6 25.24 0.4 25.32 0.4 25.6C0.4 25.88 0.64 25.96 1.08 25.96H8.76C9.2 25.96 9.44 25.88 9.44 25.6C9.44 25.32 9.28 25.24 8.8 25.12C8.24 24.96 7.96 24.52 7.96 23.12V13.2C8.04 12.16 8.76 11.44 9.84 11.44C10.96 11.44 11.68 12.24 11.68 13.36V23.12C11.68 24.52 11.4 24.96 10.84 25.12C10.36 25.24 10.2 25.32 10.2 25.6C10.2 25.88 10.44 25.96 10.88 25.96H18.56C19 25.96 19.24 25.88 19.24 25.6C19.24 25.32 19.08 25.24 18.6 25.12C18.04 24.96 17.76 24.52 17.76 23.12V13.2C17.84 12.16 18.56 11.44 19.64 11.44C20.76 11.44 21.48 12.24 21.48 13.36ZM37.4356 8.2C32.0756 8.2 28.3156 12.12 28.3156 17.16C28.3156 22.24 32.0756 26.16 37.4356 26.16C42.7156 26.16 46.5156 22.24 46.5156 17.16C46.5156 12.12 42.7156 8.2 37.4356 8.2ZM38.6356 24.8C37.1956 24.96 35.5956 22.48 34.7956 17.6C34.0356 12.68 34.7156 9.72 36.2356 9.56C37.6356 9.4 39.2356 11.92 40.0356 16.76C40.7956 21.72 40.1156 24.64 38.6356 24.8Z" fill="black"></path><path d="M47.88 13.52V23.12C47.88 24.52 47.6 24.96 47.04 25.12C46.6 25.24 46.4 25.32 46.4 25.6C46.4 25.88 46.64 25.96 47.08 25.96H54.76C55.2 25.96 55.44 25.88 55.44 25.6C55.44 25.32 55.28 25.24 54.8 25.12C54.24 24.96 53.96 24.52 53.96 23.12V14.04C55.04 12.48 55.6 11.92 56.36 11.92C57.12 11.92 57.56 12.48 58.04 13.4C58.76 14.72 59.4 15.04 60.04 15.04C61.08 15.04 62.64 13.92 62.64 11.64C62.64 9.68 61.32 8.04 59.44 8.04C57.44 8.04 55.56 9.6 53.96 12.32V8.88C53.96 8.64 53.92 8.2 53.52 8.2C53.04 8.2 52.2 8.56 50.52 9.2C48.92 9.84 47.76 10.28 47.08 10.52C46.68 10.68 46.44 10.84 46.44 11.12C46.44 11.44 46.68 11.64 47.08 11.92C47.8 12.44 47.88 12.96 47.88 13.52ZM63.7206 13.52V23.12C63.7206 24.52 63.4406 24.96 62.8806 25.12C62.4406 25.24 62.2406 25.32 62.2406 25.6C62.2406 25.88 62.4806 25.96 62.9206 25.96H70.6006C71.0406 25.96 71.2806 25.88 71.2806 25.6C71.2806 25.32 71.1206 25.24 70.6406 25.12C70.0806 24.96 69.8006 24.52 69.8006 23.12V13.2C69.8806 12.16 70.6006 11.44 71.6806 11.44C72.8006 11.44 73.5206 12.24 73.5206 13.36V23.12C73.5206 24.52 73.2406 24.96 72.6806 25.12C72.2006 25.24 72.0406 25.32 72.0406 25.6C72.0406 25.88 72.2806 25.96 72.7206 25.96H80.4006C80.8406 25.96 81.0806 25.88 81.0806 25.6C81.0806 25.32 80.9206 25.24 80.4406 25.12C79.8806 24.96 79.6006 24.52 79.6006 23.12V13.04C79.6006 10.48 78.0806 8.2 74.5606 8.2C72.2406 8.2 70.5206 9.8 69.8006 11.56V8.88C69.8006 8.64 69.7606 8.2 69.3606 8.2C68.8806 8.2 68.0406 8.56 66.3606 9.2C64.7606 9.84 63.6006 10.28 62.9206 10.52C62.5206 10.68 62.2806 10.84 62.2806 11.12C62.2806 11.44 62.5206 11.64 62.9206 11.92C63.6406 12.44 63.7206 12.96 63.7206 13.52ZM82.3738 14.16V23.12C82.3738 24.52 82.0938 24.96 81.5338 25.12C81.0938 25.24 80.8938 25.32 80.8938 25.6C80.8938 25.88 81.1338 25.96 81.5738 25.96H89.2538C89.6938 25.96 89.9338 25.88 89.9338 25.6C89.9338 25.32 89.7738 25.24 89.2938 25.12C88.7338 24.96 88.4538 24.52 88.4538 23.12V9.52C88.4538 9.28 88.4138 8.84 88.0138 8.84C87.5338 8.84 86.6938 9.2 85.0138 9.84C83.4138 10.48 82.2538 10.92 81.5738 11.16C81.1738 11.32 80.9338 11.48 80.9338 11.76C80.9338 12.08 81.1738 12.28 81.5738 12.56C82.2938 13.08 82.3738 13.6 82.3738 14.16ZM85.2538 8.24C87.2938 8.24 89.0938 6.92 89.0938 5.12C89.0938 3.28 87.2938 1.96 85.2538 1.96C83.2938 1.96 81.4938 3.28 81.4938 5.12C81.4938 6.92 83.2938 8.24 85.2538 8.24ZM91.4175 13.52V23.12C91.4175 24.52 91.1375 24.96 90.5775 25.12C90.1375 25.24 89.9375 25.32 89.9375 25.6C89.9375 25.88 90.1775 25.96 90.6175 25.96H98.2975C98.7375 25.96 98.9775 25.88 98.9775 25.6C98.9775 25.32 98.8175 25.24 98.3375 25.12C97.7775 24.96 97.4975 24.52 97.4975 23.12V13.2C97.5775 12.16 98.2975 11.44 99.3775 11.44C100.497 11.44 101.217 12.24 101.217 13.36V23.12C101.217 24.52 100.937 24.96 100.377 25.12C99.8975 25.24 99.7375 25.32 99.7375 25.6C99.7375 25.88 99.9775 25.96 100.417 25.96H108.097C108.537 25.96 108.777 25.88 108.777 25.6C108.777 25.32 108.617 25.24 108.137 25.12C107.577 24.96 107.297 24.52 107.297 23.12V13.04C107.297 10.48 105.777 8.2 102.257 8.2C99.9375 8.2 98.2175 9.8 97.4975 11.56V8.88C97.4975 8.64 97.4575 8.2 97.0575 8.2C96.5775 8.2 95.7375 8.56 94.0575 9.2C92.4575 9.84 91.2975 10.28 90.6175 10.52C90.2175 10.68 89.9775 10.84 89.9775 11.12C89.9775 11.44 90.2175 11.64 90.6175 11.92C91.3375 12.44 91.4175 12.96 91.4175 13.52ZM117.951 22.84C114.111 22.56 112.631 22.24 112.631 21.72C112.631 21.36 113.311 21.08 114.031 20.88C114.991 21.2 116.031 21.36 117.151 21.36C121.591 21.36 125.351 18.72 125.351 14.8C125.351 11.84 123.151 9.56 120.111 8.68C120.591 8.36 121.191 8.24 122.071 8.24C123.031 8.24 123.791 8.8 124.471 9.2C125.511 9.8 126.711 9.24 126.711 7.48C126.711 6.36 125.951 5.44 124.231 5.44C122.711 5.44 120.471 6.64 119.191 8.44C118.551 8.32 117.831 8.24 117.151 8.24C112.751 8.24 108.951 10.92 108.951 14.8C108.951 17.44 110.631 19.52 113.111 20.56C111.471 20.76 109.231 21.52 109.231 23.36C109.231 25.48 112.711 26.12 116.911 26.12C120.311 26.12 123.231 25.16 123.231 25.88C123.231 26.64 121.671 27.48 119.991 28.24C117.871 29.16 114.711 29.84 112.311 29.84C109.791 29.84 108.711 29.56 108.791 28.96C108.791 28.68 109.031 28.4 109.231 28.24C109.511 28.04 109.631 27.92 109.631 27.8C109.631 27.48 109.031 27.24 108.311 27.24C105.831 27.32 104.111 28.64 104.111 30.44C104.111 32.6 106.231 33.92 110.351 33.92C117.031 33.92 125.231 30.96 125.231 25.8C125.231 23.8 122.031 23.12 117.951 22.84ZM118.191 20.2C117.311 20.2 116.031 18.64 115.311 14.88C114.591 11.2 115.311 9.4 116.151 9.4C117.111 9.4 118.271 10.64 118.991 14.36C119.791 18.12 119.111 20.2 118.191 20.2Z" fill="black"></path></svg>