<svg xmlns="http://www.w3.org/2000/svg" width="1183" height="636" viewBox="0 0 1183 636" fill="none"><path d="M1099.25 105.952L1082.15 88.8547H936.124L926.535 79.2657L942.943 62.8585V53.7344H892.223L866.867 79.0898H790.905V94.9781H755.207L700.968 149.218H683.116V134.141H694.555L704.605 124.092V107.107H623.855L577.584 153.378V175.733H601.671V186.129H621.774V154.935L641.873 134.836L648.98 141.939L636.85 154.068V187.167L626.887 197.131H581.686L555.419 223.402V239.042H541.25L531.661 248.631V273.468H559.273L588.847 243.893L616.459 271.505L625.001 262.958L615.119 253.076L620.926 247.273L639.987 266.333H653.939L665.676 278.075H683.116V290.565L675.495 298.191H650.541L642.915 290.565H622.582L615.186 297.961L599.709 282.479H543.79L507.055 319.219V366.699L538.073 397.717H593.008V442.368L609.528 458.893V524.165L631.422 546.055H652.852L674.886 524.021V492.28L697.601 469.56V426.195L729.757 394.044V376.288H710.615L688.432 354.105V320.604H696.487V336.741L724.36 364.619H733.719L757.635 340.707V331.001H744.463L723.67 310.208L728.868 305.005L742.04 318.177H786.054L801.302 333.429H809.97V371.55L822.271 383.855H830.068L836.571 377.357V360.806L853.768 343.609V334.814H865.247L884.222 353.789H894.014V385.281L899.966 391.229V395.348L914.636 410.023L917.7 406.959V400.087L900.629 383.016V370.512H907.935L919.487 382.064H925.38L933.99 373.459V359.651L922.118 347.783V339.665H939.937L972.17 307.433V292.528L962.12 282.479V264.456L972.084 254.493L984.128 266.536V283.517H993.658L1000.24 276.933V259.429L1037.76 221.913V200.339H1025.54V184.049L1044.61 164.989H1110.46L1088.27 187.167V213.854H1099.71L1123.28 190.29V164.989H1143.62L1182.14 126.457V105.952H1099.25Z" fill="#353535"></path><path d="M1055.51 475.412L1049.83 469.727V460.16H1040.91V476.103L1035.65 481.36H1027.39L1020.03 473.995V460.16H997.352L977.136 480.38V488.119H961.541L946.289 503.367V533.176L960.472 547.354H982.564L994.279 535.644H1012.14L1039.21 562.714H1061.36L1081.55 542.512V513.303L1055.51 487.262V475.412Z" fill="#353535"></path><path d="M883.828 399.58V405.667L903.304 425.143V431.009L911.16 438.865H917.965V425.973L891.576 399.58H883.828Z" fill="#353535"></path><path d="M927.274 442.256L924.156 445.374L929.007 450.225H961.239L953.271 442.256H927.274Z" fill="#353535"></path><path d="M1122.24 588.283L1129.55 595.588L1148.52 576.613V566.388L1146.33 564.195L1122.24 588.283Z" fill="#353535"></path><path d="M1046.34 272.601V256.83H1041.83L1022.6 276.067V284.383H1008.04V293.137H1025.8L1046.34 272.601Z" fill="#353535"></path><path d="M414.336 15.428H363.914L336.961 42.3808H316.777V59.6273H352.475L379.681 86.8328V134.836L400.564 155.715H420.058L455.106 120.667H471.008L499.621 92.0537V0H429.764L414.336 15.428Z" fill="#353535"></path><path d="M268.949 59.9699H304.214V33.6308H325.788L355.592 3.82617H280.731L259.762 24.791V33.9783H268.949V59.9699Z" fill="#353535"></path><path d="M314.007 83.5391H264.375V98.5971H295.181L311.318 114.734V130.414L334.539 153.635L351.785 136.393L339.651 124.264L347.192 116.724L314.007 83.5391Z" fill="#353535"></path><path d="M559.822 204.842V190.2L550.202 180.584V169.145H539.977V215.893H548.771L559.822 204.842Z" fill="#353535"></path><path d="M531.949 194.531H518.258V208.222H531.949V194.531Z" fill="#353535"></path><path d="M761.865 57.1626L723.633 95.3945L732.455 104.217L770.687 65.9851L761.865 57.1626Z" fill="#353535"></path><path d="M958.799 432.318L966.538 424.579V395.871H957.933L943.29 410.514H935.23V419.724L947.825 432.318H958.799Z" fill="#353535"></path><path d="M1004.39 428.623H1015.42L1038.12 451.326H1061.69L1071.31 460.942L1076.21 456.046L1063.11 442.946V434.512L1050.18 421.589H1031.71L1026.03 427.274H1022.7L1013.42 417.992H1009.18L1004.39 422.789V428.623Z" fill="#353535"></path><path d="M709.977 481.937V509.837H722.368V493.29L732.85 482.803V470.453L727.155 464.758L709.977 481.937Z" fill="#353535"></path><path d="M291.016 377.096L261.035 347.115H241.569L231.777 337.328V312.978L244.818 299.938H272.416L284.825 312.351H296.327V293.223L339.71 249.84V219.63H365.417V196.066L324.286 154.935H300.258V198.836H283.16L256.185 171.861V153.202L283.187 126.2V113.691H266.175L254.163 101.679V83.5391H250.061H240.531V113.001H168.44L159.081 103.642H126.502H71.3958L64.4647 96.7109H24.4213L0 121.132V159.443L25.4727 184.915H42.2815L59.5236 167.673H99.8151L148.206 216.065V271.387L196.62 319.801V333.772L225.162 362.313H254.741L288.99 396.567V439.137L316.922 467.065V551.429L304.662 563.689V615.199L325.103 635.64H339.538V593.02L395.917 536.642V515.384L428.032 483.269V428.046L377.082 377.096H291.016Z" fill="#353535"></path></svg>